<svg width="419" height="61" viewBox="0 0 419 61" fill="none" xmlns="http://www.w3.org/2000/svg">
<path d="M288.489 7.167C287.385 7.167 286.489 8.063 286.489 9.16699V10.834C282.193 7.088 276.714 5 270.875 5C257.71 5 247 15.749 247 28.96C247 30.064 247.896 30.96 249 30.96C250.104 30.96 251 30.064 251 28.96C251 17.954 259.916 8.99999 270.875 8.99999C275.682 8.99999 280.198 10.702 283.758 13.759H281.925C280.821 13.759 279.925 14.655 279.925 15.759C279.925 16.863 280.821 17.759 281.925 17.759H288.489C289.593 17.759 290.489 16.863 290.489 15.759V9.16699C290.489 8.063 289.593 7.167 288.489 7.167Z" fill="#00B4F1"/>
<path d="M293 27.0402C291.896 27.0402 291 27.9362 291 29.0402C291 40.0461 282.084 49.0001 271.125 49.0001C266.374 49.0001 261.906 47.3401 258.366 44.3501H260.287C261.391 44.3501 262.287 43.4541 262.287 42.3501C262.287 41.2461 261.391 40.3501 260.287 40.3501H253.722C253.704 40.3501 253.688 40.3551 253.671 40.3551C253.595 40.3571 253.52 40.3671 253.444 40.3781C253.388 40.3861 253.332 40.3911 253.277 40.4041C253.211 40.4191 253.146 40.4431 253.081 40.4651C253.021 40.4861 252.96 40.5041 252.902 40.5301C252.847 40.5551 252.795 40.5871 252.742 40.6171C252.679 40.6531 252.617 40.6881 252.558 40.7301C252.543 40.7411 252.526 40.7471 252.511 40.7591C252.477 40.7851 252.451 40.8171 252.419 40.8451C252.366 40.8911 252.313 40.9371 252.265 40.9891C252.22 41.0371 252.181 41.0871 252.142 41.1381C252.103 41.1891 252.065 41.2401 252.03 41.2941C251.995 41.3501 251.965 41.4081 251.936 41.4661C251.907 41.5231 251.88 41.5811 251.857 41.6411C251.834 41.7031 251.816 41.7651 251.799 41.8291C251.783 41.8901 251.766 41.9511 251.756 42.0141C251.744 42.0851 251.739 42.1561 251.734 42.2281C251.731 42.2691 251.722 42.3091 251.722 42.3511V48.9431C251.722 50.0471 252.618 50.9431 253.722 50.9431C254.826 50.9431 255.722 50.0471 255.722 48.9431V47.3531C259.985 50.9821 265.382 53.0001 271.125 53.0001C284.29 53.0001 295 42.2511 295 29.0402C295 27.9362 294.104 27.0402 293 27.0402Z" fill="#00B4F1"/>
<path d="M56.9467 42.2311H53.7575C53.3847 45.4479 50.6599 47.8745 47.4221 47.8745C44.1836 47.8745 41.4595 45.4479 41.0864 42.2311H20.4632C20.0894 45.4479 17.3656 47.8745 14.1278 47.8745C10.8893 47.8745 8.16556 45.4479 7.79174 42.2311H1.06284C0.47578 42.2311 2.47782e-07 41.7553 2.47782e-07 41.1683V11.0632C2.47782e-07 10.4761 0.47578 10 1.06284 10H37.9505C38.5369 10 39.013 10.4761 39.013 11.0632V17.0264H48.0175C48.365 17.0274 48.6905 17.1977 48.8891 17.4839L54.7037 25.807L56.9784 28.9962L57.8076 30.1763C57.9319 30.3539 57.9989 30.5652 57.9995 30.7821V41.1366C58.0079 41.4218 57.9009 41.6987 57.703 41.9046C57.5051 42.1108 57.2322 42.2284 56.9467 42.2311V42.2311ZM47.4434 45.42C49.7913 45.42 51.6955 43.5162 51.6955 41.1683C51.6955 38.8197 49.7913 36.9159 47.4434 36.9159C45.0948 36.9159 43.1911 38.8197 43.1911 41.1683C43.1911 43.5252 45.0862 45.4443 47.4434 45.4733V45.42ZM14.1491 45.42C16.4974 45.42 18.4015 43.5162 18.4015 41.1683C18.4015 38.8197 16.4974 36.9159 14.1491 36.9159C11.8002 36.9159 9.89676 38.8197 9.89676 41.1683C9.89643 43.5252 11.7919 45.4443 14.1491 45.4733V45.42ZM2.14734 12.126V31.1759H31.0087C31.5957 31.1759 32.0719 31.6517 32.0719 32.2387C32.0719 32.8258 31.5957 33.3019 31.0087 33.3019H2.14734V40.1051H7.81273C8.18655 36.8886 10.9106 34.4624 14.1491 34.4624C17.387 34.4624 20.111 36.8886 20.4845 40.1051H36.8873V16.9628H29.2125C28.6254 16.9628 28.1493 16.4867 28.1493 15.8996C28.1493 15.3125 28.6254 14.8364 29.2125 14.8364H36.8873V12.126H2.14734ZM47.4644 19.1528H38.9603V40.1051H41.0864C41.4595 36.8886 44.1836 34.4624 47.4221 34.4624C50.6599 34.4624 53.3847 36.8886 53.7575 40.1051H55.8839V31.1222L55.565 30.6651H42.5957C42.0086 30.6651 41.5328 30.1897 41.5328 29.6026V21.7362C41.5328 21.1492 42.0086 20.6731 42.5957 20.6731H48.5489L47.4644 19.1528ZM50.0369 22.8204H43.6588V28.5604H54.0874L50.0369 22.8204Z" fill="#00B4F1"/>
<path d="M123.016 36.8296L125.735 22.4905C126.028 21.2271 126.612 20.0494 127.44 19.0513L125.843 17.4503C125.674 17.2809 125.579 17.0512 125.579 16.8117C125.579 16.5722 125.674 16.3425 125.843 16.1731L126.153 15.8632C125.629 15.4786 125.188 14.9908 124.859 14.4299C124.53 13.869 124.318 13.2467 124.238 12.6012C124.218 11.8587 124.353 11.1201 124.632 10.432C124.826 9.94391 124.942 9.4281 124.974 8.90381C124.974 8.66411 125.069 8.43422 125.239 8.26472C125.408 8.09522 125.638 8 125.878 8C126.118 8 126.348 8.09522 126.517 8.26472C126.687 8.43422 126.782 8.66411 126.782 8.90381C126.754 9.62244 126.607 10.3315 126.347 11.0022C126.154 11.4645 126.049 11.9595 126.041 12.4607C126.117 12.89 126.28 13.2992 126.519 13.6634C126.759 14.0275 127.071 14.3388 127.435 14.5782L128.034 13.9796C128.206 13.8163 128.435 13.7253 128.673 13.7253C128.91 13.7253 129.139 13.8163 129.311 13.9796L131.726 16.3998C132.282 16.2713 132.851 16.2055 133.423 16.2035H151.592C167.153 16.2035 178.592 29.2913 182.063 42.4482H183.096C183.336 42.4482 183.566 42.5435 183.735 42.713C183.905 42.8825 184 43.1123 184 43.352V47.0143C184 47.254 183.905 47.4839 183.735 47.6534C183.566 47.8229 183.336 47.9181 183.096 47.9181H128.082C127.843 47.918 127.613 47.8227 127.443 47.6532C127.274 47.4838 127.179 47.254 127.178 47.0143V43.5437C127.165 43.4814 127.158 43.4178 127.158 43.3541C127.158 40.3411 126.069 38.646 123.627 37.8584C123.417 37.7908 123.239 37.6489 123.127 37.4595C123.014 37.2701 122.975 37.0461 123.016 36.8296V36.8296ZM128.671 15.9014L127.759 16.8135L128.74 17.7989C129.091 17.5308 129.465 17.2929 129.856 17.0877L128.671 15.9014ZM182.192 46.1105V44.2559H181.384H181.366H128.986V46.1084L182.192 46.1105ZM128.934 42.4482H180.197C176.764 30.1233 166.056 18.0112 151.592 18.0112H133.423C131.907 18.0156 130.45 18.5993 129.351 19.6427C129.344 19.6509 129.338 19.6602 129.33 19.6685C129.31 19.6886 129.287 19.7036 129.265 19.7201C128.39 20.5777 127.778 21.6681 127.503 22.8623L124.934 36.4159C127.404 37.4674 128.72 39.4512 128.934 42.4482V42.4482Z" fill="#00B4F1"/>
<path d="M145.35 37.8024H160.81C161.05 37.8024 161.279 37.8976 161.449 38.0671C161.618 38.2366 161.714 38.4665 161.714 38.7062C161.714 38.9459 161.618 39.1758 161.449 39.3453C161.279 39.5148 161.05 39.61 160.81 39.61H145.35C145.11 39.61 144.88 39.5148 144.711 39.3453C144.541 39.1758 144.446 38.9459 144.446 38.7062C144.446 38.4665 144.541 38.2366 144.711 38.0671C144.88 37.8976 145.11 37.8024 145.35 37.8024V37.8024Z" fill="#00B4F1"/>
<path d="M130.84 23.611C130.904 23.2581 131.085 22.9372 131.354 22.7004C131.623 22.4635 131.964 22.3247 132.323 22.3064H148.202C154.388 22.3064 159.802 26.4898 161.675 32.7163C161.715 32.8512 161.724 32.9937 161.7 33.1325C161.675 33.2713 161.619 33.4024 161.535 33.5155C161.451 33.6286 161.341 33.7204 161.215 33.7837C161.09 33.8469 160.951 33.8799 160.81 33.8799H130.442C130.22 33.8779 130.003 33.8247 129.806 33.7245C129.609 33.6243 129.437 33.4799 129.305 33.3025C129.129 33.0757 129.006 32.8118 128.945 32.5307C128.885 32.2495 128.89 31.9584 128.958 31.6792L130.84 23.611ZM145.981 32.0722V29.5416H141.327V32.0722H145.981ZM139.519 32.0722V28.6403C139.519 28.4006 139.615 28.1707 139.784 28.0012C139.954 27.8317 140.184 27.7365 140.423 27.7365H146.885C147.125 27.7365 147.355 27.8317 147.524 28.0012C147.694 28.1707 147.789 28.4006 147.789 28.6403V32.0733H159.537C157.611 27.2665 153.191 24.1151 148.202 24.1151H132.579L130.72 32.0733L139.519 32.0722Z" fill="#00B4F1"/>
<path d="M386.582 40.7079C387.039 40.2496 387.039 39.5078 386.582 39.0494C386.124 38.5924 385.382 38.5924 384.924 39.0494C384.467 39.5078 384.467 40.2496 384.924 40.7079C385.382 41.1649 386.124 41.1649 386.582 40.7079Z" fill="#00B4F1"/>
<path d="M381.032 12.891C381.032 19.9991 386.815 25.7824 393.923 25.7824C401.031 25.7824 406.814 19.9991 406.814 12.891C406.814 5.7829 401.031 0 393.923 0C386.815 0 381.032 5.7829 381.032 12.891V12.891ZM404.47 12.891C404.47 18.7069 399.739 23.4384 393.923 23.4384C388.107 23.4384 383.376 18.7069 383.376 12.891C383.376 7.07557 388.107 2.34402 393.923 2.34402C399.739 2.34402 404.47 7.07557 404.47 12.891Z" fill="#00B4F1"/>
<path d="M372.499 59.6721C372.953 60.13 373.692 60.135 374.152 59.6817L379.834 54.0842C380.799 53.119 381.093 51.6899 380.668 50.4476L381.891 49.2689C382.549 48.6333 383.415 48.283 384.331 48.283H399.91C402.674 48.283 405.286 47.2216 407.267 45.2943C407.348 45.2151 406.648 46.0397 417.895 32.5974C419.564 30.6239 419.314 27.6603 417.339 25.9903C415.376 24.3359 412.435 24.5735 410.762 26.5132L403.847 33.6209C402.974 32.5462 401.642 31.8762 400.203 31.8762H387.135C385.275 31.0983 383.302 30.7045 381.267 30.7045C375.623 30.7045 370.696 33.3109 368.051 38.1976C366.937 37.9865 365.762 38.3236 364.917 39.1689L359.342 44.7604C358.887 45.2169 358.886 45.9555 359.34 46.4134L372.499 59.6721ZM381.266 33.048C383.061 33.048 384.797 33.4093 386.425 34.1218C386.574 34.1868 386.733 34.2203 386.895 34.2203H400.203C401.474 34.2203 402.547 35.2565 402.547 36.5638C402.547 37.8565 401.496 38.9078 400.203 38.9078H390.642C389.995 38.9078 389.47 39.4326 389.47 40.0796C389.47 40.7271 389.995 41.2514 390.642 41.2514H400.203C402.788 41.2514 404.891 39.1487 404.891 36.5638C404.891 36.3578 404.876 36.1535 404.85 35.9511C411.539 29.0748 412.482 28.1086 412.523 28.0605C413.358 27.0746 414.841 26.9496 415.827 27.7812C416.814 28.6159 416.939 30.0977 416.102 31.0891L405.591 43.655C404.056 45.1285 402.04 45.9395 399.91 45.9395H384.331C382.804 45.9395 381.359 46.5233 380.263 47.5824L379.267 48.5436L370.086 39.363C372.232 35.3376 376.258 33.048 381.266 33.048V33.048ZM366.575 40.8251C366.962 40.4386 367.555 40.369 368.027 40.6603C368.229 40.7839 367.647 40.2536 378.177 50.769C378.645 51.2374 378.62 51.9838 378.183 52.4207L373.34 57.1925L361.825 45.5896L366.575 40.8251Z" fill="#00B4F1"/>
<path d="M392.517 5.85998V7.23325C391.153 7.7168 390.173 9.01954 390.173 10.5476C390.173 12.4859 391.75 14.0634 393.689 14.0634C394.335 14.0634 394.86 14.5891 394.86 15.2352C394.86 15.8813 394.335 16.4069 393.689 16.4069C393.188 16.4069 392.647 16.0924 392.167 15.5204C391.75 15.025 391.011 14.9613 390.516 15.3776C390.02 15.7943 389.956 16.5333 390.373 17.0288C390.999 17.7738 391.736 18.2931 392.517 18.555V19.9228C392.517 20.5702 393.042 21.0945 393.689 21.0945C394.336 21.0945 394.86 20.5702 394.86 19.9228V18.5495C396.225 18.0655 397.204 16.7627 397.204 15.2352C397.204 13.2964 395.627 11.7194 393.689 11.7194C393.043 11.7194 392.517 11.1937 392.517 10.5476C392.517 9.90147 393.043 9.37533 393.689 9.37533C394.104 9.37533 394.542 9.58734 394.956 9.98801C395.421 10.4381 396.163 10.4258 396.613 9.961C397.063 9.49576 397.051 8.75395 396.586 8.30383C395.991 7.72824 395.396 7.40267 394.86 7.225V5.85998C394.86 5.21251 394.336 4.68774 393.689 4.68774C393.042 4.68774 392.517 5.21251 392.517 5.85998V5.85998Z" fill="#00B4F1"/>
</svg>
