<svg width="206" height="44" viewBox="0 0 206 44" fill="none" xmlns="http://www.w3.org/2000/svg">
<path d="M138.128 33.5889C138.146 33.5929 138.165 33.5945 138.183 33.599C138.052 33.5656 138.045 33.5656 138.128 33.5889Z" fill="#00B4F1"/>
<path d="M206 27.3332C206 27.1785 205.978 27.0315 205.938 26.8938C205.609 25.3216 204.574 23.9967 203.09 22.8614C202.088 22.0949 201.099 21.5654 200.401 21.2717C200.218 21.1947 200.022 21.1537 199.824 21.1506C199.568 21.1466 199.074 21.132 198.377 21.1004C197.21 21.0476 195.907 20.9647 194.503 20.8454C191.123 20.5582 187.747 20.1107 184.537 19.478C184.316 19.4346 184.097 19.3905 183.879 19.3454C183.575 19.2824 183.271 19.2183 182.969 19.1518C177.284 17.8981 172.75 16.1164 169.892 13.7873C169.875 13.7736 169.858 13.7638 169.841 13.7509C169.454 13.4336 169.105 13.1176 168.799 12.8C168.781 12.7815 168.763 12.7632 168.746 12.7447C168.66 12.6544 168.579 12.5641 168.5 12.4735C168.476 12.4464 168.451 12.4199 168.428 12.3926C168.18 12.1031 167.931 11.8183 167.678 11.5382C164.322 7.80878 160.715 5.04985 157.098 3.11739C154.9 1.94309 153.164 1.30154 152.12 1.04488C151.594 0.915371 151.038 1.07049 150.654 1.45412L147.554 4.55452C147.527 4.58122 147.5 4.60701 147.472 4.63371C146.568 5.50904 145.635 6.34185 144.643 7.16214C144.577 7.21627 144.52 7.27548 144.466 7.33688C135.337 14.89 127.848 14.9728 121.832 10.6084C120.976 9.98754 120.233 9.32238 119.61 8.66048C119.246 8.27377 119.01 7.9846 118.906 7.84183C118.268 6.96015 116.944 6.99321 116.351 7.90595C113.571 12.1834 112.667 17.144 113.127 22.3423C113.286 24.1447 113.602 25.8503 114.016 27.4104C114.019 27.4219 114.022 27.4329 114.025 27.4444C113.428 27.6598 113 28.2298 113 28.9011V36.6511C113 37.5072 113.694 38.2011 114.55 38.2011H136.25C136.661 38.2011 137.055 38.0378 137.346 37.7472L138.258 36.8348C138.862 36.9948 139.639 37.1972 140.247 37.3472C142.472 37.8961 144.962 38.4421 147.674 38.9518C158.627 41.0096 169.806 41.8889 180.277 40.9173C189.941 40.0206 198.39 37.5717 205.267 33.3008C205.723 33.018 205.999 32.5201 205.999 31.9841V27.3701C205.999 27.3654 206 27.3612 206 27.3565V27.3332ZM149.655 6.83501C149.68 6.81048 149.706 6.78705 149.731 6.76253L152.184 4.30985C152.277 4.34255 152.376 4.37833 152.482 4.41738C153.413 4.76123 154.456 5.22532 155.584 5.82509L153.754 7.65474C153.149 8.26015 153.149 9.24155 153.754 9.84677C154.36 10.452 155.341 10.452 155.946 9.84677L158.327 7.4662C159.273 8.09595 160.214 8.79054 161.146 9.55669L158.404 12.3036C157.799 12.9094 157.799 13.8908 158.405 14.4957C159.011 15.1005 159.993 15.0998 160.597 14.4938L163.46 11.6268C164.103 12.2502 164.739 12.9079 165.366 13.6047C165.604 13.8681 165.839 14.136 166.072 14.4088C166.114 14.4581 166.159 14.506 166.203 14.5549C166.269 14.6304 166.336 14.706 166.405 14.7806C166.43 14.8073 166.455 14.834 166.481 14.8608C166.589 14.9757 166.699 15.0896 166.813 15.2022C166.785 15.2249 166.759 15.2482 166.731 15.2703C166.716 15.2825 166.701 15.2941 166.686 15.3061C164.477 17.0719 161.481 17.5828 158.777 16.6038C158.74 16.5903 158.702 16.5829 158.665 16.5725C157.839 16.2603 157.05 15.8102 156.332 15.2155L148.041 8.34171C148.576 7.862 149.114 7.35994 149.655 6.83501ZM167.543 18.491C167.551 18.4863 167.559 18.4816 167.567 18.4766C167.663 18.4163 167.759 18.3548 167.853 18.2912C167.865 18.2832 167.877 18.2747 167.889 18.2665C168.046 18.161 168.199 18.0511 168.351 17.9372C168.403 17.8983 168.454 17.8593 168.505 17.8195C168.571 17.7679 168.637 17.7161 168.703 17.6629C168.807 17.5777 168.91 17.4905 169.012 17.4013C169.06 17.3597 169.106 17.3169 169.153 17.2742C169.185 17.2451 169.218 17.217 169.249 17.1876C172.37 19.2964 176.636 20.8892 181.803 22.0684L181.533 22.4088C179.674 24.7365 177.599 27.054 175.357 29.2973C174.451 30.2024 173.499 31.1037 172.443 32.0609C165.795 32.1325 158.582 31.6626 150.805 30.5855C152.801 27.1528 155.508 23.4728 158.732 19.8422C161.708 20.6102 164.908 20.1347 167.543 18.491ZM198.237 24.1972C198.661 24.2165 199.038 24.2304 199.365 24.2401C199.544 24.2911 199.665 24.3525 199.802 24.4261C200.283 24.6838 200.765 24.9857 201.206 25.3237C201.756 25.7442 202.188 26.178 202.484 26.6083C202.293 26.6984 202.081 26.7954 201.848 26.8989C200.252 27.6069 198.3 28.3193 195.981 28.987C190.495 30.5669 184.194 31.6059 177.06 31.973C177.224 31.8119 177.387 31.651 177.549 31.4899C180.38 28.6574 182.951 25.7081 185.186 22.757C188.135 23.2896 191.188 23.6752 194.241 23.9346C195.687 24.0572 197.03 24.1427 198.237 24.1972ZM117.936 11.3905C118.511 11.9427 119.203 12.5312 120.012 13.1176C126.974 18.168 135.699 18.1779 145.631 10.3699L154.354 17.6019C154.792 17.9652 155.25 18.2887 155.722 18.5751C152.341 22.4771 149.533 26.4277 147.515 30.1112C143.99 29.5507 140.339 28.8701 136.557 28.0549C134.303 27.5704 131.958 27.3334 129.553 27.3334L117.218 27.3476C117.152 27.1254 117.081 26.8775 117.012 26.6163C116.642 25.2187 116.358 23.685 116.215 22.0691C115.876 18.2392 116.372 14.6054 117.936 11.3905ZM202.899 31.1108C196.603 34.8298 188.864 37.0072 179.99 37.8305C169.845 38.772 158.939 37.9141 148.247 35.905C145.593 35.4064 143.16 34.8727 140.99 34.3372C139.971 34.0859 138.434 33.6752 138.128 33.5887C137.614 33.4774 137.077 33.6314 136.704 34.0048L135.608 35.1008H116.1V30.4491L129.554 30.4338C131.75 30.4338 133.874 30.6483 135.903 31.0857C161.951 36.6986 182.123 36.2032 196.838 31.9661C197.145 31.8777 197.445 31.7885 197.741 31.6986C197.75 31.6955 197.76 31.6924 197.77 31.6895C198.05 31.6041 198.325 31.518 198.595 31.4312C198.651 31.4132 198.704 31.395 198.759 31.3772C198.981 31.3049 199.202 31.2327 199.417 31.1596C199.487 31.1358 199.555 31.1117 199.625 31.0877C199.82 31.0205 200.015 30.9531 200.205 30.8854C200.283 30.8576 200.358 30.8294 200.435 30.8014C200.612 30.7371 200.788 30.6727 200.96 30.6078C201.04 30.5778 201.117 30.5477 201.195 30.5175C201.36 30.4545 201.523 30.3917 201.683 30.3283C201.762 30.2968 201.839 30.2652 201.917 30.2336C202.071 30.1715 202.224 30.1094 202.372 30.0471C202.45 30.0148 202.525 29.9822 202.601 29.9497C202.701 29.9074 202.803 29.8651 202.9 29.8228V31.1108H202.899Z" fill="#00B4F1"/>
<path d="M17.637 29.3691C16.7714 29.2583 16.0799 29.8568 15.982 30.6222C15.8843 31.3855 16.3998 32.1407 17.268 32.2519C18.0658 32.3536 18.792 31.7898 18.8939 30.995C18.9956 30.199 18.4331 29.471 17.637 29.3691V29.3691Z" fill="#00B4F1"/>
<path d="M93 33.4285C93 26.1874 87.1141 20.3438 79.9224 20.3438C75.3485 20.3438 75.1047 19.8474 69.5959 16.634C70.2803 15.2624 68.6441 13.9074 67.4255 14.8219L67.016 15.1291L62.281 12.3669C63.0882 11.0062 61.4291 9.50984 60.1598 10.4625L59.6596 10.8378L54.9583 8.0954C55.9 6.74217 54.2032 5.12066 52.8942 6.10316L52.3031 6.54636L42.2627 0.68952C39.9695 -0.64845 36.994 0.00600438 35.4949 2.26017L34.9985 3.00654C33.8632 4.71178 33.8642 6.91509 35.0005 8.61962L35.6595 9.60811L31.0333 11.9211C28.139 13.3683 24.5832 12.4577 22.7612 9.72418L20.1757 5.84577C17.4229 1.71725 11.2613 1.99261 8.88594 6.34656C5.6095 12.3534 5.63293 12.2815 5.19826 13.1943C3.1023 17.3242 2.00646 23.2214 2.86181 28.8944L0.104132 35.7886C-0.16506 36.4616 0.102861 37.2303 0.732429 37.59C7.6061 41.5178 15.4239 43.5939 23.3408 43.5939H79.4507C85.336 43.5939 90.8526 39.9618 92.9275 33.8754C92.9693 33.7484 92.9993 33.5828 93 33.4285V33.4285ZM90.0438 32.4353C85.6034 34.0152 79.7731 34.8751 75.0035 34.8751C67.8183 34.8751 60.5903 34.5498 53.4011 33.9084L59.6819 25.5344C65.6882 27.8752 72.0025 29.0626 78.4692 29.0626C81.2996 29.0626 83.3901 26.405 82.6982 23.6381C86.656 24.7628 89.6364 28.2272 90.0438 32.4353V32.4353ZM37.4178 4.61715C37.9932 3.75199 38.4303 2.90627 39.7125 2.90627C40.5431 2.90627 40.1974 2.84942 49.7797 8.43888L47.0818 10.4624C46.4397 10.9439 46.3097 11.8548 46.791 12.4967C47.2718 13.1378 48.1829 13.2695 48.8254 12.7876L52.5044 10.0284L57.1362 12.7303L54.3473 14.8219C53.7052 15.3035 53.5751 16.2144 54.0565 16.8563C54.5373 17.4973 55.4484 17.629 56.0909 17.1471L59.8606 14.3199L64.4925 17.0218L61.6128 19.1815C60.9707 19.663 60.8406 20.574 61.3219 21.2159C61.8028 21.8569 62.7139 21.9886 63.3563 21.5067L67.2169 18.6113L72.1158 21.4689C74.1718 22.6681 76.5453 23.2505 78.4689 23.2505C79.2746 23.2505 79.922 23.8978 79.922 24.7036C79.922 25.5094 79.2746 26.1567 78.4689 26.1567C68.2167 26.1567 58.3981 22.946 50.2644 17.2043L38.8402 9.14093L37.4183 7.00809C36.9346 6.28171 36.9343 5.34335 37.4178 4.61715V4.61715ZM11.4373 7.73884C12.7674 5.29994 16.217 5.14845 17.7575 7.45838L20.343 11.3368C22.986 15.3018 28.1405 16.6169 32.3331 14.521L37.6539 11.8606C49.2839 20.0692 51.372 21.8264 56.9257 24.3663L50.0119 33.5842C48.2965 33.4069 46.5845 33.2099 44.876 32.9966C44.4024 30.3804 42.9844 28.1662 41.098 26.6586C38.4135 24.51 35.4117 22.8243 32.1769 21.6486L8.53919 13.052L11.4373 7.73884ZM79.4508 40.6877H23.3408C16.3501 40.6877 9.44122 38.9583 3.27922 35.6764L5.28872 30.6527L11.4712 31.4784C12.2694 31.5847 12.9979 31.0234 13.1038 30.2304C13.2101 29.435 12.6514 28.7041 11.8558 28.5978L5.64201 27.7679C5.14686 23.6744 5.71703 19.493 7.27387 15.6844L31.1842 24.3799C34.121 25.4472 36.8456 26.9774 39.2832 28.9284C40.416 29.8335 41.3218 31.101 41.7915 32.5925C41.7728 32.5899 23.2245 30.1054 23.0561 30.1054C22.2536 30.1054 21.6039 30.7561 21.6039 31.5585C21.6039 32.3029 22.1645 32.9165 22.8859 33.0015C42.5386 35.6239 55.2691 37.7814 75.0039 37.7814C79.3798 37.7814 84.426 37.1099 88.6771 35.9147C86.599 38.8569 83.1912 40.6877 79.4508 40.6877V40.6877Z" fill="#00B4F1"/>
</svg>
