<svg width="169" height="95" viewBox="0 0 169 95" fill="none" xmlns="http://www.w3.org/2000/svg">
<path d="M75.0058 10.8001C74.9824 10.5341 74.8913 10.2786 74.7412 10.0579C74.591 9.83712 74.3868 9.65854 74.148 9.53916L55.398 0.164157C55.1792 0.0550879 54.9378 -0.00110612 54.6933 9.43003e-05H26.5683C26.3265 -0.00256179 26.0874 0.0509244 25.8699 0.156344L7.11985 9.53135C6.8784 9.65086 6.67194 9.83078 6.52054 10.0536C6.36914 10.2765 6.27794 10.5347 6.25579 10.8032L0.00578995 82.6782C-0.012874 82.8944 0.0137014 83.1121 0.0838236 83.3175C0.153946 83.5229 0.266077 83.7114 0.413072 83.871C0.560067 84.0307 0.738703 84.1579 0.937598 84.2447C1.13649 84.3315 1.35129 84.3759 1.56829 84.3751H13.9011L12.5308 91.9079C12.4898 92.1331 12.4988 92.3646 12.5572 92.5859C12.6155 92.8072 12.7218 93.0131 12.8685 93.1888C13.0151 93.3645 13.1986 93.5059 13.406 93.6029C13.6133 93.6999 13.8394 93.7501 14.0683 93.7501H67.1933C67.4221 93.7499 67.648 93.6995 67.8551 93.6024C68.0623 93.5053 68.2456 93.3639 68.3921 93.1882C68.5386 93.0125 68.6447 92.8068 68.7029 92.5855C68.7612 92.3643 68.7702 92.133 68.7292 91.9079L67.0761 82.8126H79.6933C79.9106 82.8134 80.1257 82.769 80.3248 82.682C80.5239 82.595 80.7027 82.4674 80.8498 82.3075C80.9968 82.1475 81.1089 81.9586 81.1788 81.7528C81.2487 81.5471 81.2749 81.329 81.2558 81.1126L75.0058 10.8001ZM52.098 3.12509L40.6308 24.786L29.1636 3.12509H52.098ZM66.5089 79.6876L62.5277 57.7876L67.1761 26.7938L64.0855 26.3251L59.398 57.5751C59.3722 57.7447 59.3754 57.9175 59.4074 58.086L65.3183 90.6251H15.9433L21.8589 58.0923C21.8863 57.9231 21.8863 57.7506 21.8589 57.5814L17.1714 26.3313L14.0808 26.8001L18.7292 57.7938L14.4683 81.2501H3.27298L9.29954 11.9438L25.9011 3.64228L39.2495 28.8563C39.3824 29.1075 39.5812 29.3177 39.8245 29.4643C40.0679 29.6109 40.3467 29.6884 40.6308 29.6884C40.9149 29.6884 41.1937 29.6109 41.437 29.4643C41.6804 29.3177 41.8792 29.1075 42.012 28.8563L55.3605 3.64228L71.9652 11.9454L77.9855 79.6876H66.5089Z" fill="#00B4F1"/>
<path d="M163.422 2.3416C163.369 1.96927 163.183 1.62861 162.899 1.38217C162.615 1.13572 162.251 1.00003 161.875 1H121.25C120.874 1.00003 120.51 1.13572 120.226 1.38217C119.942 1.62861 119.756 1.96927 119.703 2.3416C119.656 2.6707 115 35.4797 115 54.125V93.1875C115 93.6019 115.165 93.9993 115.458 94.2924C115.751 94.5854 116.148 94.75 116.562 94.75H135.312C135.711 94.75 136.094 94.5977 136.384 94.3243C136.674 94.0509 136.849 93.6771 136.872 93.2793C136.888 93.0131 138.438 66.5453 138.438 55.6875C138.438 49.0998 140.215 41.2385 141.562 36.2287C142.91 41.2363 144.688 49.0941 144.688 55.6875C144.688 66.5453 146.237 93.0131 146.253 93.2793C146.276 93.6771 146.451 94.0509 146.741 94.3243C147.031 94.5977 147.414 94.75 147.812 94.75H166.562C166.977 94.75 167.374 94.5854 167.667 94.2924C167.96 93.9993 168.125 93.6019 168.125 93.1875V54.125C168.125 35.4797 163.469 2.6707 163.422 2.3416ZM162.466 19.75H161.66C160.375 19.7482 159.135 19.2781 158.172 18.4277C157.209 17.5774 156.588 16.405 156.427 15.1303L155.833 10.375H161.337C161.675 13.0285 162.067 16.2344 162.466 19.75ZM160.934 7.25H152.5V4.125H160.515C160.619 4.88379 160.762 5.9457 160.934 7.25ZM143.125 10.375H146.25V21.3125C146.25 21.7268 146.085 22.1239 145.792 22.4168C145.499 22.7098 145.102 22.8745 144.688 22.875H143.125V10.375ZM143.125 4.125H149.375V7.25H143.125V4.125ZM140 7.25H133.75V4.125H140V7.25ZM130.625 4.125V7.25H122.191C122.363 5.9457 122.506 4.88379 122.61 4.125H130.625ZM126.902 13.5H121.398C121.533 12.3928 121.664 11.3463 121.788 10.375H127.293L126.902 13.5ZM126.279 16.625C125.863 17.5544 125.187 18.3438 124.333 18.8982C123.479 19.4526 122.483 19.7484 121.465 19.75H120.659C120.781 18.677 120.902 17.633 121.021 16.625H126.279ZM135.312 55.6875C135.312 64.9793 134.162 85.8986 133.837 91.625H118.125V54.125C118.125 45.2637 119.195 33.1252 120.311 22.875H121.465C123.511 22.8721 125.486 22.1235 127.02 20.7693C128.554 19.4151 129.542 17.5482 129.798 15.5182L130.442 10.375H140V30.4377C139.355 32.4223 135.312 45.2842 135.312 55.6875ZM165 91.625H149.288C148.963 85.8986 147.812 64.9793 147.812 55.6875C147.812 45.2842 143.77 32.4223 143.125 30.4377V26H144.688C145.93 25.9986 147.122 25.5043 148.001 24.6255C148.879 23.7467 149.374 22.5553 149.375 21.3125V10.375H152.683L153.327 15.518C153.583 17.5481 154.571 19.415 156.105 20.7693C157.639 22.1235 159.614 22.8721 161.66 22.875H162.814C163.93 33.1246 165 45.2627 165 54.125V91.625Z" fill="#00B4F1"/>
</svg>
