<svg width="176" height="92" viewBox="0 0 176 92" fill="none" xmlns="http://www.w3.org/2000/svg">
<path d="M94.6387 37.8758C95.9958 36.9344 97.6375 36.5805 99.2625 36.879C100.887 37.1775 102.296 38.0925 103.23 39.4551L108.685 47.4169V19.1899C108.685 16.1115 111.189 13.6075 114.268 13.6075C115.088 13.6075 115.866 13.7866 116.568 14.1055V13.6109C116.568 10.5326 119.073 8.02849 122.151 8.02849C125.229 8.02849 127.733 10.5327 127.733 13.6109V14.1055C128.436 13.7866 129.214 13.6075 130.034 13.6075C133.113 13.6075 135.617 16.1117 135.617 19.1899V20.3813C136.319 20.0623 137.097 19.883 137.918 19.883C139.685 19.883 141.262 20.7097 142.286 21.9958L148.24 11.6835C149.78 9.01796 153.2 8.10134 155.866 9.64025C156.577 10.0502 157.161 10.5949 157.61 11.2221L157.857 10.7939C158.603 9.50243 159.806 8.5786 161.247 8.19256C162.687 7.80668 164.191 8.00487 165.483 8.75021C168.149 10.2894 169.065 13.7105 167.526 16.3763L167.279 16.8045C168.046 16.8794 168.81 17.1133 169.521 17.5235C172.186 19.0625 173.103 22.4836 171.564 25.1494L170.968 26.1812C171.736 26.256 172.5 26.49 173.21 26.9002C175.876 28.4392 176.792 31.8603 175.253 34.526L158.909 62.8344C158.295 63.8978 157.363 64.7045 156.243 65.158L145.649 83.5076C145.431 83.8845 145.073 84.1596 144.652 84.2721C144.513 84.3097 144.37 84.3281 144.228 84.3281C143.942 84.3281 143.659 84.2536 143.407 84.1082L142.187 83.4034C141.92 83.9502 141.361 84.3281 140.712 84.3281H105.596C104.69 84.3281 103.955 83.5932 103.955 82.6873V65.2513L92.8199 46.0225C91.2247 43.2681 92.0237 39.6898 94.6387 37.8758ZM155.297 13.8793C155.138 13.2857 154.757 12.7896 154.225 12.4823C153.127 11.8482 151.716 12.2257 151.082 13.3244L143.691 26.1266C143.635 26.2229 143.571 26.3112 143.5 26.3914V35.66L155.067 15.6251C155.375 15.093 155.456 14.4729 155.297 13.8793ZM142.353 79.7102L143.627 80.446L151.729 66.4122L150.354 66.7806C150.212 66.8186 150.069 66.837 149.929 66.837C149.204 66.8368 148.541 66.3535 148.345 65.6203C148.11 64.745 148.63 63.8455 149.505 63.6107L154.748 62.2057C155.309 62.0556 155.777 61.6963 156.067 61.1934L172.411 32.8853C173.045 31.7868 172.668 30.3768 171.569 29.7424C170.47 29.108 169.06 29.486 168.426 30.5847L156.825 50.6775C156.372 51.4622 155.368 51.7314 154.584 51.2779C153.859 50.8596 153.576 49.9725 153.893 49.2211C153.893 49.2014 153.92 49.1453 153.983 49.0365L168.722 23.5086C169.356 22.4099 168.978 21 167.88 20.3655C166.781 19.7314 165.371 20.1089 164.737 21.2075L150.955 45.0778C150.651 45.6041 150.1 45.8986 149.532 45.8986C149.254 45.8986 148.972 45.8276 148.714 45.6785C147.929 45.2253 147.66 44.2219 148.113 43.437L161.894 19.567C161.895 19.5669 161.895 19.5665 161.895 19.5662L164.684 14.7355C164.991 14.2033 165.073 13.5833 164.914 12.9896C164.755 12.396 164.374 11.8997 163.842 11.5924C163.31 11.2851 162.69 11.2036 162.096 11.3626C161.502 11.5217 161.006 11.9023 160.699 12.4347L144.128 41.1364C144.128 41.1367 144.128 41.137 144.127 41.1374L143.5 42.2233V57.8213C143.5 59.0699 143.091 60.255 142.353 61.2206V79.7102ZM95.6593 44.3778L107.016 63.9882C107.015 63.9885 107.015 63.9889 107.015 63.989C107.155 64.2309 107.237 64.5108 107.237 64.8105V73.0345H126.393C127.299 73.0345 128.034 73.7693 128.034 74.6753C128.034 75.5812 127.299 76.3161 126.393 76.3161H107.237V81.0463H139.071V64.0525L137.808 65.0589C137.506 65.2996 137.145 65.4165 136.786 65.4164C136.304 65.4164 135.826 65.2046 135.502 64.7979C134.937 64.089 135.054 63.0568 135.763 62.492L139.342 59.6409C139.899 59.1969 140.219 58.5336 140.219 57.8209V25.4658C140.219 24.1971 139.187 23.1649 137.918 23.1649C136.649 23.1649 135.617 24.1971 135.617 25.4658V48.6669C135.617 49.573 134.882 50.3077 133.976 50.3077C133.07 50.3077 132.335 49.5728 132.335 48.6669V25.4658V19.1899C132.335 17.9213 131.303 16.8892 130.035 16.8892C128.766 16.8892 127.734 17.9213 127.734 19.1899V46.7528C127.734 47.6589 126.999 48.3935 126.093 48.3935C125.187 48.3935 124.452 47.6587 124.452 46.7528V19.1899V13.6111C124.452 12.3425 123.42 11.3104 122.152 11.3104C120.883 11.3104 119.851 12.3425 119.851 13.6111V19.19V46.7529C119.851 47.659 119.116 48.3937 118.21 48.3937C117.304 48.3937 116.569 47.6589 116.569 46.7529V19.1899C116.569 17.9213 115.537 16.8892 114.268 16.8892C113 16.8892 111.968 17.9213 111.968 19.1899V48.4262C111.968 49.09 111.741 49.7425 111.33 50.2639C110.748 51.0025 109.843 51.4251 108.9 51.3936C107.96 51.3624 107.081 50.8806 106.549 50.1046L100.523 41.3101C100.087 40.6734 99.429 40.2462 98.6701 40.1066C97.9111 39.9674 97.1443 40.1323 96.51 40.5723C95.2876 41.4196 94.9145 43.0912 95.6593 44.3778Z" fill="#00B4F1"/>
<path d="M132.815 73.5146C133.12 73.2097 133.543 73.0339 133.975 73.0339C134.408 73.0339 134.83 73.2095 135.135 73.5146C135.44 73.8198 135.615 74.2432 135.615 74.6747C135.615 75.1079 135.44 75.5297 135.135 75.8348C134.83 76.1415 134.406 76.3155 133.975 76.3155C133.543 76.3155 133.121 76.1415 132.815 75.8348C132.51 75.5297 132.334 75.1062 132.334 74.6747C132.334 74.2432 132.509 73.8198 132.815 73.5146Z" fill="#00B4F1"/>
<path d="M82.9704 89.0846L76.144 25.4852C76.0302 24.4613 75.12 23.6649 74.0961 23.6649H61.4672V19.7966C61.4672 8.87432 52.5929 0 41.6707 0C30.7484 0 21.8741 8.87432 21.8741 19.7966V23.6649H8.90392C7.87996 23.6649 6.96977 24.4613 6.856 25.4852L0.0295958 89.0846C-0.0841776 89.6534 0.143369 90.2223 0.484689 90.6774C0.826009 91.1325 1.39488 91.36 1.96374 91.36H81.0363C81.6051 91.36 82.174 91.1325 82.5153 90.6774C82.8566 90.2223 83.0842 89.6534 82.9704 89.0846ZM59.4193 35.156C60.4433 35.156 61.2397 35.9524 61.2397 36.9764C61.2397 38.0003 60.4433 38.7967 59.4193 38.7967C58.3953 38.7967 57.5989 38.0003 57.5989 36.9764C57.5989 35.9524 58.3953 35.156 59.4193 35.156ZM25.9699 19.7966C25.9699 11.1498 33.0239 4.09584 41.6707 4.09584C50.3174 4.09584 57.3714 11.1498 57.3714 19.7966V23.6649H25.9699V19.7966ZM23.922 35.156C24.946 35.156 25.7424 35.9524 25.7424 36.9764C25.7424 38.0003 24.946 38.7967 23.922 38.7967C22.898 38.7967 22.1016 38.0003 22.1016 36.9764C22.1016 35.9524 22.898 35.156 23.922 35.156ZM4.35298 87.1504L10.7243 27.6469H21.8741V31.4015C19.5986 32.1979 18.0058 34.3596 18.0058 36.8626C18.0058 40.0482 20.6226 42.665 23.8082 42.665C26.9939 42.665 29.6107 40.0482 29.6107 36.8626C29.6107 34.3596 28.0179 32.1979 25.7424 31.4015V27.6469H57.1438V31.4015C54.8684 32.1979 53.2755 34.3596 53.2755 36.8626C53.2755 40.0482 55.8923 42.665 59.078 42.665C62.2636 42.665 64.8804 40.0482 64.8804 36.8626C64.8804 34.3596 63.2876 32.1979 61.0121 31.4015V27.6469H72.617L78.9883 87.1504H4.35298Z" fill="#00B4F1"/>
</svg>
