<svg width="174" height="94" viewBox="0 0 174 94" fill="none" xmlns="http://www.w3.org/2000/svg">
<path d="M65.605 70.0688L56.23 10.6937C56.1837 10.3997 56.0543 10.125 55.857 9.90195C55.6598 9.67894 55.403 9.51692 55.1168 9.43496L42.6933 5.88555L40.49 0.92793C40.3672 0.651717 40.167 0.417039 39.9136 0.252338C39.6601 0.0876364 39.3643 -1.73672e-05 39.0621 2.58104e-09H26.5621C26.2598 -1.73672e-05 25.964 0.0876364 25.7106 0.252338C25.4571 0.417039 25.2569 0.651717 25.1341 0.92793L22.9308 5.88574L10.5074 9.43516C10.2212 9.51712 9.96434 9.67914 9.76711 9.90214C9.56988 10.1252 9.44046 10.3999 9.3941 10.6939V10.6939L0.0190988 70.0689C-0.0160902 70.2919 -0.00254049 70.5199 0.0588149 70.7372C0.12017 70.9544 0.227874 71.1558 0.374512 71.3274C0.521151 71.4991 0.703243 71.6369 0.908251 71.7314C1.11326 71.826 1.33632 71.8749 1.56207 71.875H9.14566L6.28238 85.6188C6.21204 85.9564 6.25539 86.3078 6.40568 86.6183C6.55597 86.9287 6.80475 87.1807 7.11324 87.335C7.63629 87.5977 20.0894 93.75 32.8121 93.75C45.5347 93.75 57.9879 87.5977 58.5109 87.335C58.8194 87.1807 59.0682 86.9287 59.2185 86.6183C59.3687 86.3078 59.4121 85.9564 59.3418 85.6188L56.4785 71.875H64.0621C64.2878 71.8749 64.5109 71.826 64.7159 71.7314C64.921 71.6369 65.1031 71.499 65.2497 71.3274C65.3964 71.1557 65.5041 70.9543 65.5654 70.737C65.6267 70.5198 65.6403 70.2918 65.605 70.0688ZM52.9382 12.0629L48.6541 40.625H40.2408L36.9111 28.9713L46.5453 16.5842C46.719 16.3611 46.8289 16.095 46.8633 15.8143C46.8977 15.5336 46.8553 15.2489 46.7406 14.9904L44.348 9.60937L52.9382 12.0629ZM34.3746 46.875V43.75H48.4371V46.875H34.3746ZM17.1871 43.75H24.9996V46.875H17.1871V43.75ZM28.1246 43.75H31.2496V46.875H28.1246V43.75ZM22.1002 15.4492L26.3537 5.87891L31.3189 20.7748L35.0314 33.7682L22.1002 15.4492ZM34.6109 20.9207L34.6558 20.7645L39.3121 5.97188L43.5041 15.4039L35.8478 25.2477L34.6109 20.9207ZM32.9488 15.7813L28.73 3.125H36.9332L32.9488 15.7813ZM21.2763 9.60937L18.8841 14.9904C18.7743 15.2376 18.7305 15.509 18.7571 15.7782C18.7836 16.0474 18.8795 16.305 19.0355 16.526L31.863 34.6982C31.5421 34.9434 31.3287 35.3034 31.2675 35.7026C31.2064 36.1018 31.3024 36.5091 31.5353 36.8391C31.7682 37.169 32.1199 37.3959 32.5165 37.472C32.9131 37.5481 33.3238 37.4676 33.6623 37.2473L36.0464 40.625H16.9703L12.6859 12.0629L21.2763 9.60937ZM3.39058 68.75L10.898 21.207L14.0621 42.3047V48.2768L9.79664 68.75H3.39058ZM9.5943 85.0443L16.8951 50H37.4996V90.3422C35.9438 90.5263 34.3787 90.6208 32.8121 90.625C22.9121 90.625 12.8474 86.5039 9.5943 85.0443ZM40.6246 89.876V50H48.73L56.031 85.0451C53.6449 86.1166 47.5951 88.6193 40.6246 89.876ZM55.8275 68.75L51.5621 48.2762V42.3035L54.7261 21.2066L62.2336 68.75H55.8275Z" fill="#00B4F1"/>
<path d="M32.812 56.25C33.675 56.25 34.3745 55.5504 34.3745 54.6875C34.3745 53.8246 33.675 53.125 32.812 53.125C31.9491 53.125 31.2495 53.8246 31.2495 54.6875C31.2495 55.5504 31.9491 56.25 32.812 56.25Z" fill="#00B4F1"/>
<path d="M32.812 65.625C33.675 65.625 34.3745 64.9254 34.3745 64.0625C34.3745 63.1996 33.675 62.5 32.812 62.5C31.9491 62.5 31.2495 63.1996 31.2495 64.0625C31.2495 64.9254 31.9491 65.625 32.812 65.625Z" fill="#00B4F1"/>
<path d="M32.812 75C33.675 75 34.3745 74.3004 34.3745 73.4375C34.3745 72.5746 33.675 71.875 32.812 71.875C31.9491 71.875 31.2495 72.5746 31.2495 73.4375C31.2495 74.3004 31.9491 75 32.812 75Z" fill="#00B4F1"/>
<path d="M172.983 32.1341C172.836 31.4316 172.147 30.9814 171.444 31.1292C170.742 31.2767 170.292 31.9657 170.439 32.6682C171.086 35.7485 171.401 39.1652 171.401 43.1085L171.363 53.1591C171.297 53.1572 171.232 53.1527 171.167 53.1527C167.499 53.1527 164.515 56.1367 164.515 59.8047C164.515 63.4724 167.499 66.4566 171.167 66.4566C171.216 66.4566 171.264 66.453 171.313 66.4517L171.258 81.008L160.106 82.3854L159.86 41.9312C159.858 41.2148 159.276 40.6361 158.561 40.6361C158.559 40.6361 158.557 40.6361 158.556 40.6361C157.838 40.6385 157.258 41.2225 157.261 41.9402L157.38 76.2949H138.726V10.4733C142.432 10.4253 145.9 10.1739 148.605 9.75176C149.848 9.55768 150.863 9.34089 151.676 9.09015V13.5963C151.676 14.9438 152.772 16.0401 154.12 16.0401C155.295 16.0401 157.368 16.6333 159.958 17.7103C163.061 19.0011 165.678 21.3004 167.325 24.1846C167.956 25.2902 168.521 26.4843 169.002 27.7339C169.2 28.2501 169.693 28.5668 170.215 28.5668C170.37 28.5668 170.528 28.5388 170.681 28.4797C171.351 28.2218 171.685 27.4698 171.427 26.7998C170.899 25.4283 170.279 24.1148 169.582 22.8955C167.651 19.5145 164.588 16.8208 160.956 15.3103C158.072 14.1106 155.825 13.483 154.275 13.4429V7.11971C154.275 7.10238 154.273 7.0854 154.273 7.06824C154.291 6.96254 154.302 6.85389 154.302 6.74125C154.302 5.23453 152.651 4.36238 148.605 3.73075C145.586 3.25941 141.616 3 137.427 3C133.246 3 129.306 3.25958 126.332 3.7311C122.349 4.36255 120.724 5.23453 120.724 6.74125C120.724 6.7993 120.728 6.85614 120.733 6.91229C120.728 6.9589 120.724 7.00621 120.724 7.05403V13.4428C119.175 13.4826 116.928 14.1104 114.044 15.3101C110.412 16.8206 107.348 19.5144 105.417 22.8954C102.445 28.1004 101 34.7137 101 43.1134V49.1605C101 49.8783 101.582 50.4602 102.3 50.4602C103.017 50.4602 103.599 49.8783 103.599 49.1605V43.1134C103.599 35.1779 104.932 28.9862 107.675 24.1844C109.322 21.3003 111.938 19.0009 115.042 17.7101C117.631 16.6331 119.705 16.04 120.88 16.04C122.227 16.04 123.324 14.9438 123.324 13.5961V9.09431C124.121 9.34315 125.116 9.55854 126.332 9.75124C128.996 10.1735 132.435 10.4251 136.127 10.4733V76.2949H117.616V41.9357C117.616 41.218 117.034 40.6361 116.316 40.6361C115.598 40.6361 115.016 41.218 115.016 41.9357L114.894 82.3832L103.599 80.9707V54.5884C103.599 53.8706 103.017 53.2887 102.3 53.2887C101.582 53.2887 101 53.8706 101 54.5884V87.4064C101 88.7404 102.055 89.8326 103.374 89.8927L114.899 91.6282H114.996C116.368 91.6282 117.485 90.5117 117.485 89.1393V85.1504H157.382V89.1393C157.382 90.5117 158.498 91.6282 159.871 91.6282H159.968L171.479 89.8927C172.798 89.8326 173.853 88.7404 173.853 87.4064L174 43.1134C174 38.9836 173.667 35.3921 172.983 32.1341V32.1341ZM171.254 63.8563C171.225 63.8568 171.196 63.8571 171.167 63.8571C168.932 63.8571 167.114 62.0392 167.114 59.8045C167.114 57.5698 168.932 55.7518 171.167 55.7518C171.196 55.7518 171.225 55.7522 171.254 55.7527V63.8563ZM124.53 6.74125C126.643 6.19367 130.99 5.5993 137.427 5.5993C143.912 5.5993 148.305 6.19228 150.456 6.74125C148.305 7.29005 143.912 7.88321 137.427 7.88321C130.99 7.88304 126.643 7.28884 124.53 6.74125ZM117.583 78.8942H157.417L157.51 82.5513H117.49L117.583 78.8942ZM103.599 87.2979V83.5903L114.886 85.0017V88.9977L103.599 87.2979ZM159.981 88.9977V85.0199L171.254 83.6275V87.2981L159.981 88.9977Z" fill="#00B4F1"/>
<path d="M154.129 35.1744C154.129 34.4567 153.547 33.8748 152.829 33.8748H145.044C144.326 33.8748 143.745 34.4567 143.745 35.1744C143.745 35.8922 144.326 36.474 145.044 36.474H152.829C153.547 36.474 154.129 35.8922 154.129 35.1744Z" fill="#00B4F1"/>
<path d="M124.442 70.2362L130.525 64.1525C131.033 63.6449 131.033 62.822 130.525 62.3146C130.018 61.8071 129.195 61.8071 128.687 62.3146L122.604 68.3984C122.096 68.9059 122.096 69.7289 122.604 70.2364C122.857 70.4901 123.19 70.6171 123.523 70.6171C123.855 70.6168 124.188 70.4899 124.442 70.2362Z" fill="#00B4F1"/>
<path d="M145.021 62.3143C144.513 62.8218 144.513 63.6446 145.021 64.1522L151.104 70.2359C151.358 70.4898 151.691 70.6166 152.023 70.6166C152.356 70.6166 152.689 70.4898 152.942 70.2359C153.45 69.7283 153.45 68.9056 152.942 68.3979L146.859 62.3141C146.351 61.8067 145.528 61.8067 145.021 62.3143V62.3143Z" fill="#00B4F1"/>
</svg>
