<svg width="166" height="89" viewBox="0 0 166 89" fill="none" xmlns="http://www.w3.org/2000/svg">
<path d="M165.998 85.3114L161.581 1.39419C161.54 0.613852 160.894 0 160.111 0H118.888C118.105 0 117.458 0.613852 117.419 1.39574L113.002 85.3129C112.961 86.0976 113.544 86.7779 114.326 86.8559L129.048 88.328C129.819 88.3943 130.523 87.8672 130.647 87.1002L139.499 32.7189L148.352 87.0988C148.469 87.8158 149.091 88.3339 149.803 88.3339C149.852 88.3339 149.9 88.331 149.952 88.3265L164.674 86.8543C165.456 86.7763 166.038 86.096 165.998 85.3114ZM151.036 85.2584L140.952 23.3188C140.836 22.6062 140.221 22.0836 139.499 22.0836C138.778 22.0836 138.163 22.6062 138.046 23.3203L127.963 85.26L116.016 84.0645L120.285 2.94452H158.713L162.983 84.063L151.036 85.2584Z" fill="#00B4F1"/>
<path d="M160.111 5.88916H118.888V8.83368H160.111V5.88916Z" fill="#00B4F1"/>
<path d="M138.027 1.47205V20.7715C136.172 19.0622 135.084 16.6448 135.083 14.0301V1.47205H132.138V14.0301C132.141 18.6501 134.709 22.8047 138.841 24.8716C139.049 24.9761 139.274 25.0277 139.499 25.0277C139.767 25.0277 140.037 24.954 140.272 24.8084C140.706 24.5389 140.971 24.0664 140.971 23.5555V1.47205H138.027V1.47205Z" fill="#00B4F1"/>
<path d="M124.805 7.07703L124.628 7.96916C123.916 11.5129 121.702 14.4941 118.529 16.1946H117.416V19.1391H118.888C119.118 19.1391 119.343 19.0861 119.548 18.9845C123.698 16.9042 126.601 13.1015 127.517 8.54489L127.693 7.64688L124.805 7.07703Z" fill="#00B4F1"/>
<path d="M160.471 16.1929C157.297 14.4924 155.083 11.5125 154.372 7.97332L154.195 7.07532L151.305 7.645L151.483 8.54904C152.399 13.0998 155.304 16.9025 159.451 18.9828C159.655 19.0858 159.882 19.1389 160.11 19.1389H161.583V16.1929H160.471Z" fill="#00B4F1"/>
<path d="M72.9729 68.9488L70.0332 52.7761C69.8672 51.8621 68.9912 51.2562 68.0775 51.4221C67.1633 51.5883 66.5573 52.4638 66.7233 53.3778L67.9786 60.2843L57.9408 61.4962C57.2902 56.4059 57.3072 55.6236 58.532 49.8703L62.6022 30.7377L64.0174 38.5169C64.1653 39.3292 64.8732 39.8982 65.6704 39.8982C65.7703 39.8982 65.8717 39.8893 65.9735 39.8706C66.8875 39.7044 67.4935 38.8286 67.3273 37.9148L64.0822 20.0782C64.082 20.0774 64.0817 20.0765 64.0815 20.0755C63.7623 17.6785 62.4725 15.7827 59.3559 14.2017L48.4957 8.69479L45.9005 2.986C45.6277 2.38552 45.0289 2 44.3694 2H28.6307C27.9711 2 27.3725 2.38552 27.0993 2.98583L24.5041 8.69463L13.6438 14.2016C10.5269 15.7827 9.23708 17.6782 8.91851 20.0744C8.91834 20.0755 8.91784 20.0767 8.91767 20.0779L0.0271581 68.9484C-0.0557657 69.4044 0.0530614 69.8746 0.328241 70.2476C0.603252 70.6207 1.02006 70.8638 1.48026 70.9194L12.8146 72.2893L10.8394 81.2057C10.6646 81.9947 11.0757 82.7967 11.8185 83.1153L23.1668 87.9832C23.7272 88.2238 24.3748 88.1419 24.8579 87.7688L36.5 78.779L48.1423 87.769C48.4417 88.0002 48.8045 88.1197 49.1704 88.1197C49.3946 88.1197 49.6203 88.0747 49.8333 87.9834L61.1815 83.1155C61.9243 82.7969 62.3354 81.9949 62.1606 81.2059L60.1854 72.2895L71.5198 70.9196C71.9798 70.8639 72.3966 70.6211 72.6718 70.248C72.9468 69.8747 73.0558 69.4048 72.9729 68.9488V68.9488ZM47.175 13.5934L49.842 18.8768L46.3848 22.0829C45.8583 22.5712 45.6998 23.3398 45.9902 23.9965L48.3707 29.3798L38.182 43.3818V30.6176L47.175 13.5934ZM29.7135 5.36405H43.2863L45.3359 9.87238L36.5 26.5996L27.6642 9.87238L29.7135 5.36405ZM25.825 13.5934L34.818 30.6176V43.3818L24.6291 29.3797L27.0097 23.9963C27.3002 23.3397 27.1416 22.571 26.6151 22.0827L23.1579 18.8766L25.825 13.5934ZM10.3997 30.7276L14.468 49.8704C15.6929 55.6234 15.7099 56.4058 15.0592 61.4962L5.02277 60.2845L10.3997 30.7276ZM3.65646 67.7939L4.41943 63.5999L14.4707 64.8134L13.5456 68.989L3.65646 67.7939ZM23.5842 84.5021L14.4251 80.5731L16.5006 71.2049C16.5011 71.2027 16.5016 71.2003 16.5021 71.1982L18.1565 63.7298C18.1567 63.7291 18.1567 63.7286 18.1569 63.7279C18.1604 63.7123 18.1622 63.696 18.1653 63.68C18.1715 63.647 18.1782 63.6142 18.1826 63.5809L18.2632 62.9561C18.4736 61.328 18.6362 60.066 18.7363 58.9643H25.653C26.5818 58.9643 27.335 58.2112 27.335 57.2823C27.335 56.3533 26.5818 55.6002 25.653 55.6002H18.8135C18.7121 53.9463 18.3856 52.1156 17.7586 49.1705L13.0102 26.8274C12.4033 23.9809 12.078 22.1064 12.2163 20.744L12.2279 20.6802C12.2407 20.6103 12.2472 20.5408 12.2513 20.4717C12.4861 18.9718 13.3606 18.1177 15.1657 17.202L21.9796 13.7468L19.5846 18.4911C19.2466 19.1604 19.3925 19.9726 19.9423 20.4824L23.448 23.7334L21.1608 28.9057C20.9182 29.4543 20.986 30.0905 21.3391 30.5756L34.818 49.0995V75.8278L23.5842 84.5021ZM49.4158 84.5021L38.182 75.8278V49.0995L51.6613 30.5756C52.0143 30.0905 52.0821 29.4542 51.8396 28.9057L49.5524 23.7334L53.058 20.4824C53.6079 19.9726 53.7537 19.1604 53.4158 18.4911L51.0208 13.7468L57.8345 17.2018C59.6384 18.1168 60.5129 18.9703 60.7491 20.4688C60.753 20.5388 60.7595 20.6092 60.7725 20.6801L60.7853 20.7505C60.9223 22.1126 60.5985 23.9857 59.9947 26.8279L55.2416 49.1699C54.6146 52.1152 54.2881 53.9461 54.1867 55.6001H47.3472C46.4184 55.6001 45.6652 56.3531 45.6652 57.2821C45.6652 58.2111 46.4184 58.9641 47.3472 58.9641H54.2639C54.364 60.0658 54.5266 61.3279 54.737 62.9559L54.8176 63.5808C54.8218 63.6141 54.8285 63.6469 54.8349 63.6798C54.8379 63.6957 54.8398 63.712 54.8433 63.7278C54.8435 63.7285 54.8435 63.729 54.8437 63.7296L56.4981 71.198C56.4986 71.2002 56.4991 71.2025 56.4996 71.2047L58.5751 80.5729L49.4158 84.5021ZM59.4544 68.9892L58.5293 64.8135L68.5814 63.5999L69.3437 67.7939L59.4544 68.9892Z" fill="#00B4F1"/>
<path d="M65.3457 45.6485V45.6532C65.3457 46.5821 66.0989 47.3328 67.0277 47.3328C67.9565 47.3328 68.7098 46.5774 68.7098 45.6485C68.7098 44.7195 67.9565 43.9664 67.0277 43.9664C66.0989 43.9664 65.3457 44.7196 65.3457 45.6485Z" fill="#00B4F1"/>
</svg>
