<svg width="169" height="112" viewBox="0 0 169 112" fill="none" xmlns="http://www.w3.org/2000/svg">
<path d="M157.947 13.8947H110.053C108.018 13.8947 106.368 15.5441 106.368 17.5789V94.9473C106.368 96.982 108.018 98.6315 110.053 98.6315H157.947C159.982 98.6315 161.632 96.982 161.632 94.9473V17.5789C161.632 15.5441 159.982 13.8947 157.947 13.8947ZM157.947 94.9473H110.053V17.5789H157.947V94.9473Z" fill="#00B4F1"/>
<path d="M117.421 91.2631H150.579C152.614 91.2631 154.263 89.6136 154.263 87.5788V24.9473C154.263 22.9125 152.614 21.2631 150.579 21.2631H117.421C115.387 21.2631 113.737 22.9125 113.737 24.9473V87.5788C113.737 89.6136 115.387 91.2631 117.421 91.2631ZM117.421 30.621L131.053 41.5262L117.421 52.4315V30.621ZM134 43.8841L149.474 56.2631L134 68.642L118.527 56.2631L134 43.8841ZM150.579 81.9052L136.948 70.9999L150.579 60.0946V81.9052ZM136.948 41.5262L150.579 30.621V52.4315L136.948 41.5262ZM131.053 70.9999L117.421 81.9052V60.0946L131.053 70.9999ZM135.842 87.5788V82.0525C135.842 81.0352 135.018 80.2104 134 80.2104C132.983 80.2104 132.158 81.0352 132.158 82.0525V87.5788H117.421V86.6209L134 73.3578L150.579 86.6209V87.5788H135.842ZM132.158 24.9473V30.4736C132.158 31.491 132.983 32.3157 134 32.3157C135.018 32.3157 135.842 31.491 135.842 30.4736V24.9473H150.579V25.9052L134 39.1683L117.421 25.9052V24.9473H132.158Z" fill="#00B4F1"/>
<path d="M104.526 1C103.509 1 102.684 1.82474 102.684 2.84211V6.52632C100.649 6.52632 99 8.17579 99 10.2105V102.316C99 104.351 100.649 106 102.684 106V109.684C102.684 110.702 103.509 111.526 104.526 111.526C105.544 111.526 106.368 110.702 106.368 109.684V106H110.053V109.684C110.053 110.702 110.877 111.526 111.895 111.526C112.912 111.526 113.737 110.702 113.737 109.684V106H117.421V109.684C117.421 110.702 118.246 111.526 119.263 111.526C120.281 111.526 121.105 110.702 121.105 109.684V106H124.789V109.684C124.789 110.702 125.614 111.526 126.632 111.526C127.649 111.526 128.474 110.702 128.474 109.684V106H132.158V109.684C132.158 110.702 132.983 111.526 134 111.526C135.017 111.526 135.842 110.702 135.842 109.684V106H139.526V109.684C139.526 110.702 140.351 111.526 141.368 111.526C142.386 111.526 143.211 110.702 143.211 109.684V106H146.895V109.684C146.895 110.702 147.719 111.526 148.737 111.526C149.754 111.526 150.579 110.702 150.579 109.684V106H154.263V109.684C154.263 110.702 155.088 111.526 156.105 111.526C157.123 111.526 157.947 110.702 157.947 109.684V106H161.632V109.684C161.632 110.702 162.456 111.526 163.474 111.526C164.491 111.526 165.316 110.702 165.316 109.684V106C167.351 106 169 104.351 169 102.316V10.2105C169 8.17579 167.351 6.52632 165.316 6.52632V2.84211C165.316 1.82474 164.491 1 163.474 1C162.456 1 161.632 1.82474 161.632 2.84211V6.52632H157.947V2.84211C157.947 1.82474 157.123 1 156.105 1C155.088 1 154.263 1.82474 154.263 2.84211V6.52632H150.579V2.84211C150.579 1.82474 149.754 1 148.737 1C147.719 1 146.895 1.82474 146.895 2.84211V6.52632H143.211V2.84211C143.211 1.82474 142.386 1 141.368 1C140.351 1 139.526 1.82474 139.526 2.84211V6.52632H135.842V2.84211C135.842 1.82474 135.017 1 134 1C132.983 1 132.158 1.82474 132.158 2.84211V6.52632H128.474V2.84211C128.474 1.82474 127.649 1 126.632 1C125.614 1 124.789 1.82474 124.789 2.84211V6.52632H121.105V2.84211C121.105 1.82474 120.281 1 119.263 1C118.246 1 117.421 1.82474 117.421 2.84211V6.52632H113.737V2.84211C113.737 1.82474 112.912 1 111.895 1C110.877 1 110.053 1.82474 110.053 2.84211V6.52632H106.368V2.84211C106.368 1.82474 105.544 1 104.526 1ZM165.316 102.316H102.684V10.2105H165.316V102.316Z" fill="#00B4F1"/>
<path d="M134 61.7896C135.017 61.7896 135.842 60.9648 135.842 59.9475V52.579C135.842 51.5617 135.017 50.7369 134 50.7369C132.983 50.7369 132.158 51.5617 132.158 52.579V59.9475C132.158 60.9648 132.983 61.7896 134 61.7896Z" fill="#00B4F1"/>
<path d="M68.1582 0C67.1414 0 66.3161 0.825282 66.3161 1.84204V5.52634H62.6318V1.84204C62.6318 0.825282 61.8065 0 60.7898 0C59.773 0 58.9477 0.825282 58.9477 1.84204V5.52634H55.2634V1.84204C55.2634 0.825282 54.4382 0 53.4214 0C52.4046 0 51.5794 0.825282 51.5794 1.84204V5.52634H47.8951V1.84204C47.8951 0.825282 47.0698 0 46.053 0C45.0362 0 44.211 0.825282 44.211 1.84204V5.52634H40.5265V1.84204C40.5265 0.825282 39.7012 0 38.6844 0C37.6676 0 36.8424 0.825282 36.8424 1.84204V5.52634H33.1581V1.84204C33.1581 0.825282 32.3328 0 31.316 0C30.2993 0 29.474 0.825282 29.474 1.84204V5.52634H25.7897V1.84204C25.7897 0.825282 24.9644 0 23.9476 0C22.9309 0 22.1056 0.825282 22.1056 1.84204V5.52634H18.4211V1.84204C18.4211 0.825282 17.5958 0 16.579 0C15.5623 0 14.737 0.825282 14.737 1.84204V5.52634H11.0527V1.84204C11.0527 0.825282 10.2274 0 9.21065 0C8.19388 0 7.36839 0.825282 7.36839 1.84204V5.52634H3.68409V1.84204C3.68409 0.825282 2.8588 0 1.84204 0C0.825283 0 0 0.825282 0 1.84204V7.36839V103.158V108.685C0 109.701 0.825283 110.527 1.84204 110.527C2.8588 110.527 3.68409 109.701 3.68409 108.685V105.001H7.36839V108.685C7.36839 109.702 8.19367 110.527 9.21043 110.527C10.2272 110.527 11.0525 109.702 11.0525 108.685V105.001H14.7368V108.685C14.7368 109.702 15.5621 110.527 16.5788 110.527C17.5956 110.527 18.4209 109.702 18.4209 108.685V105.001H22.1052V108.685C22.1052 109.702 22.9304 110.527 23.9472 110.527C24.964 110.527 25.7892 109.702 25.7892 108.685V105.001H29.4738V108.685C29.4738 109.702 30.299 110.527 31.3158 110.527C32.3326 110.527 33.1578 109.702 33.1578 108.685V105.001H36.8421V108.685C36.8421 109.702 37.6674 110.527 38.6842 110.527C39.701 110.527 40.5262 109.702 40.5262 108.685V105.001H44.2105V108.685C44.2105 109.702 45.0358 110.527 46.0526 110.527C47.0693 110.527 47.8946 109.702 47.8946 108.685V105.001H51.5791V108.685C51.5791 109.702 52.4044 110.527 53.4212 110.527C54.4379 110.527 55.2632 109.702 55.2632 108.685V105.001H58.9475V108.685C58.9475 109.702 59.7728 110.527 60.7896 110.527C61.8063 110.527 62.6316 109.702 62.6316 108.685V105.001H66.3159V108.685C66.3159 109.702 67.1412 110.527 68.158 110.527C69.1747 110.527 70 109.702 70 108.685V103.159V7.36839V1.84204C70.0002 0.825282 69.1749 0 68.1582 0ZM3.68409 9.21065H66.3159V101.316H3.68409V9.21065Z" fill="#00B4F1"/>
<path d="M60.7896 97.6322C60.8738 97.6322 60.956 97.6247 61.0374 97.6137C61.056 97.6111 61.0745 97.6083 61.0929 97.6052C61.2572 97.5778 61.4139 97.5293 61.5604 97.4615C61.574 97.4552 61.5874 97.4485 61.601 97.442C61.6736 97.4064 61.7439 97.3676 61.8106 97.3229C61.8115 97.3222 61.8124 97.3218 61.8132 97.3214C61.8797 97.2769 61.9421 97.227 62.0021 97.1744C62.0168 97.1616 62.0311 97.1485 62.0453 97.1351C62.1008 97.0833 62.1539 97.0293 62.2025 96.971C62.2059 96.9669 62.2096 96.963 62.213 96.9589C62.2625 96.8987 62.3067 96.8344 62.3484 96.7681C62.3594 96.7506 62.3702 96.7329 62.3806 96.715C62.4207 96.6459 62.458 96.5749 62.4891 96.5006C62.4898 96.4989 62.4909 96.4974 62.4917 96.4957C62.4943 96.4894 62.4954 96.4829 62.498 96.4767C62.5254 96.4084 62.5481 96.3381 62.5673 96.2662C62.5727 96.2461 62.5781 96.2262 62.5828 96.206C62.6005 96.13 62.6148 96.0525 62.6225 95.9732C62.6238 95.9599 62.6236 95.9465 62.6245 95.9331C62.6282 95.8858 62.6316 95.8385 62.6316 95.7904V14.7371C62.6316 13.7203 61.8063 12.895 60.7896 12.895H55.2632H9.21021C8.19345 12.895 7.36816 13.7203 7.36816 14.7371V60.7899V95.79C7.36816 96.8067 8.19345 97.632 9.21021 97.632H60.7896V97.6322ZM11.0525 68.1582H14.7368V73.6846C14.7368 74.7014 15.5621 75.5266 16.5788 75.5266H22.1052V81.053C22.1052 82.0697 22.9304 82.895 23.9472 82.895H29.4735V86.5793H23.9472C22.9304 86.5793 22.1052 87.4046 22.1052 88.4214V93.9477H11.0525V68.1582ZM25.7892 93.9479V90.2636H31.3156C32.3323 90.2636 33.1576 89.4383 33.1576 88.4216V81.0532C33.1576 80.0364 32.3323 79.2111 31.3156 79.2111H25.7892V73.6848C25.7892 72.668 24.964 71.8428 23.9472 71.8428H18.4209V66.3164C18.4209 65.2997 17.5956 64.4744 16.5788 64.4744H11.0525V61.5528L17.4999 55.1053L56.3426 93.9479H25.7892ZM53.421 60.7899H47.8946V55.2635C47.8946 54.2468 47.0693 53.4215 46.0526 53.4215H40.5262V49.7372H46.0526C47.0693 49.7372 47.8946 48.9119 47.8946 47.8951V42.3688H53.421C54.4377 42.3688 55.263 41.5435 55.263 40.5267V35.0004H58.9473V68.1585H55.263V62.6321C55.2632 61.6151 54.4379 60.7899 53.421 60.7899ZM58.9473 31.3161H53.421C52.4042 31.3161 51.5789 32.1414 51.5789 33.1581V38.6845H46.0526C45.0358 38.6845 44.2105 39.5098 44.2105 40.5265V46.0529H38.6842C37.6674 46.0529 36.8421 46.8781 36.8421 47.8949V55.2635C36.8421 56.2803 37.6674 57.1056 38.6842 57.1056H44.2105V62.6319C44.2105 63.6487 45.0358 64.4739 46.0526 64.4739H51.5789V70.0003C51.5789 71.017 52.4042 71.8423 53.421 71.8423H58.9473V91.343L20.1044 52.5003L56.0259 16.5791H58.9475V31.3161H58.9473ZM16.1974 51.198L11.0522 56.3431V38.6845H16.5786C17.5954 38.6845 18.4206 37.8592 18.4206 36.8424V31.3161H23.947C24.9637 31.3161 25.789 30.4908 25.789 29.4741V23.9477H31.3154C32.3321 23.9477 33.1574 23.1224 33.1574 22.1057V16.5791H50.816L16.1974 51.198ZM29.4735 16.5791V20.2634H23.9472C22.9304 20.2634 22.1052 21.0887 22.1052 22.1054V27.6318H16.5788C15.5621 27.6318 14.7368 28.4571 14.7368 29.4738V35.0002H11.0525V16.5791H29.4735Z" fill="#00B4F1"/>
</svg>
