<svg width="992" height="94" viewBox="0 0 992 94" fill="none" xmlns="http://www.w3.org/2000/svg">
<path d="M553.979 44.4787C552.862 44.4787 551.957 45.3838 551.957 46.5002C551.957 63.2943 538.294 76.9573 521.5 76.9573C504.706 76.9573 491.043 63.2943 491.043 46.5002C491.043 29.7061 504.706 16.0431 521.5 16.0431C526.621 16.0431 531.603 17.3146 536.049 19.7374L533.522 22.2647C532.944 22.8429 532.771 23.7122 533.084 24.4677C533.397 25.2231 534.134 25.7157 534.951 25.7157H544.624C545.74 25.7157 546.645 24.8106 546.645 23.6942V14.0216C546.645 13.204 546.153 12.467 545.398 12.154C544.642 11.841 543.773 12.014 543.195 12.5923L539.015 16.7723C533.72 13.6462 527.7 12.0003 521.5 12.0003C512.285 12.0003 503.621 15.5889 497.105 22.105C490.589 28.6213 487 37.285 487 46.5003C487 55.7156 490.589 64.3793 497.105 70.8955C503.621 77.4119 512.285 81.0005 521.5 81.0005C530.715 81.0005 539.379 77.4119 545.895 70.8955C552.412 64.3793 556 55.7156 556 46.5003C556 45.3838 555.095 44.4787 553.979 44.4787Z" fill="#00B4F1"/>
<path d="M534.491 44.4787H523.521V33.5088C523.521 32.3924 522.616 31.4873 521.5 31.4873C520.384 31.4873 519.479 32.3924 519.479 33.5088V46.5002C519.479 47.6166 520.384 48.5217 521.5 48.5217H534.491C535.608 48.5217 536.513 47.6166 536.513 46.5002C536.513 45.3838 535.608 44.4787 534.491 44.4787Z" fill="#00B4F1"/>
<path d="M109.966 72.2394H103.808C103.088 78.4512 97.8261 83.137 91.5737 83.137C85.32 83.137 80.0598 78.4512 79.3392 72.2394H39.5152C38.7933 78.4512 33.5337 83.137 27.2813 83.137C21.0276 83.137 15.768 78.4512 15.0461 72.2394H2.05238C0.918746 72.2394 -1.61797e-06 71.3206 -1.61797e-06 70.187V12.053C-1.61797e-06 10.9194 0.918746 10 2.05238 10H73.2837C74.416 10 75.3354 10.9194 75.3354 12.053V23.5683H92.7234C93.3945 23.5702 94.0231 23.899 94.4065 24.4516L105.635 40.5239L110.027 46.6824L111.629 48.9612C111.869 49.3041 111.998 49.712 111.999 50.1309V70.1259C112.015 70.6766 111.809 71.2112 111.427 71.6089C111.044 72.0071 110.517 72.2342 109.966 72.2394V72.2394ZM91.6149 78.3972C96.1488 78.3972 99.8257 74.7209 99.8257 70.187C99.8257 65.6518 96.1488 61.9755 91.6149 61.9755C87.0797 61.9755 83.4034 65.6518 83.4034 70.187C83.4034 74.7383 87.063 78.4441 91.6149 78.5001V78.3972ZM27.3225 78.3972C31.857 78.3972 35.5339 74.7209 35.5339 70.187C35.5339 65.6518 31.857 61.9755 27.3225 61.9755C22.7866 61.9755 19.111 65.6518 19.111 70.187C19.1103 74.7383 22.7705 78.4441 27.3225 78.5001V78.3972ZM4.14659 14.1054V50.8914H59.8788C61.0125 50.8914 61.9319 51.8101 61.9319 52.9437C61.9319 54.0774 61.0125 54.9968 59.8788 54.9968H4.14659V68.134H15.0866C15.8085 61.9228 21.0688 57.2377 27.3225 57.2377C33.5748 57.2377 38.8351 61.9228 39.5564 68.134H71.2306V23.4454H56.4104C55.2767 23.4454 54.3573 22.526 54.3573 21.3923C54.3573 20.2587 55.2767 19.3393 56.4104 19.3393H71.2306V14.1054H4.14659ZM91.6554 27.6743H75.2338V68.134H79.3392C80.0598 61.9228 85.32 57.2377 91.5737 57.2377C97.8261 57.2377 103.088 61.9228 103.808 68.134H107.914V50.7878L107.298 49.9051H82.2537C81.1201 49.9051 80.2013 48.9869 80.2013 47.8533V32.6631C80.2013 31.5295 81.1201 30.6101 82.2537 30.6101H93.7496L91.6554 27.6743ZM96.623 34.7566H84.3067V45.8408H104.445L96.623 34.7566Z" fill="#00B4F1"/>
<path d="M295.832 63.7403C296.526 63.0452 296.526 61.9201 295.832 61.2249C295.138 60.5318 294.013 60.5318 293.318 61.2249C292.625 61.9201 292.625 63.0452 293.318 63.7403C294.013 64.4335 295.138 64.4335 295.832 63.7403Z" fill="#00B4F1"/>
<path d="M287.415 21.5513C287.415 32.3319 296.186 41.1034 306.966 41.1034C317.747 41.1034 326.518 32.3319 326.518 21.5513C326.518 10.7707 317.747 2 306.966 2C296.186 2 287.415 10.7707 287.415 21.5513V21.5513ZM322.963 21.5513C322.963 30.3721 315.787 37.5482 306.966 37.5482C298.146 37.5482 290.969 30.3721 290.969 21.5513C290.969 12.7313 298.146 5.5551 306.966 5.5551C315.787 5.5551 322.963 12.7313 322.963 21.5513Z" fill="#00B4F1"/>
<path d="M274.473 92.5028C275.162 93.1972 276.283 93.2049 276.981 92.5173L285.599 84.0279C287.062 82.5639 287.508 80.3964 286.864 78.5122L288.717 76.7246C289.715 75.7606 291.029 75.2294 292.418 75.2294H316.047C320.239 75.2294 324.201 73.6195 327.205 70.6964C327.328 70.5763 326.267 71.827 343.325 51.4395C345.855 48.4463 345.476 43.9515 342.48 41.4187C339.503 38.9095 335.043 39.27 332.506 42.2118L322.018 52.9917C320.693 51.3618 318.674 50.3457 316.492 50.3457H296.671C293.851 49.1658 290.859 48.5685 287.771 48.5685C279.212 48.5685 271.739 52.5216 267.728 59.9332C266.038 59.613 264.256 60.1242 262.974 61.4062L254.519 69.8866C253.828 70.579 253.827 71.6993 254.516 72.3938L274.473 92.5028ZM287.77 52.1229C290.493 52.1229 293.125 52.6709 295.595 53.7515C295.82 53.8501 296.062 53.9008 296.308 53.9008H316.492C318.419 53.9008 320.047 55.4725 320.047 57.4552C320.047 59.4158 318.452 61.0103 316.492 61.0103H301.99C301.009 61.0103 300.213 61.8062 300.213 62.7875C300.213 63.7696 301.009 64.5647 301.99 64.5647H316.492C320.412 64.5647 323.601 61.3756 323.601 57.4552C323.601 57.1427 323.579 56.833 323.539 56.526C333.684 46.0968 335.115 44.6314 335.176 44.5585C336.443 43.0633 338.692 42.8737 340.188 44.1349C341.685 45.4009 341.875 47.6483 340.604 49.1519L324.662 68.2101C322.334 70.445 319.278 71.675 316.047 71.675H292.418C290.103 71.675 287.911 72.5604 286.249 74.1668L284.738 75.6245L270.813 61.7007C274.068 55.5954 280.175 52.1229 287.77 52.1229V52.1229ZM265.489 63.9182C266.076 63.332 266.976 63.2265 267.69 63.6682C267.998 63.8557 267.115 63.0514 283.085 78.9998C283.796 79.7102 283.757 80.8422 283.095 81.5048L275.749 88.7421L258.284 71.1444L265.489 63.9182Z" fill="#00B4F1"/>
<path d="M304.834 10.8876V12.9704C302.765 13.7038 301.279 15.6796 301.279 17.9972C301.279 20.9369 303.67 23.3295 306.611 23.3295C307.591 23.3295 308.388 24.1267 308.388 25.1067C308.388 26.0866 307.591 26.8839 306.611 26.8839C305.852 26.8839 305.032 26.4067 304.303 25.5393C303.671 24.7879 302.55 24.6914 301.799 25.3226C301.047 25.9546 300.95 27.0755 301.582 27.827C302.532 28.9569 303.65 29.7445 304.834 30.1417V32.2162C304.834 33.1982 305.63 33.9934 306.611 33.9934C307.592 33.9934 308.388 33.1982 308.388 32.2162V30.1334C310.457 29.3993 311.943 27.4235 311.943 25.1067C311.943 22.1662 309.551 19.7744 306.611 19.7744C305.631 19.7744 304.834 18.9771 304.834 17.9972C304.834 17.0172 305.631 16.2193 306.611 16.2193C307.241 16.2193 307.905 16.5408 308.533 17.1485C309.239 17.8312 310.364 17.8124 311.047 17.1075C311.729 16.4019 311.711 15.2768 311.006 14.5941C310.104 13.7212 309.201 13.2274 308.388 12.9579V10.8876C308.388 9.90563 307.592 9.10974 306.611 9.10974C305.63 9.10974 304.834 9.90563 304.834 10.8876V10.8876Z" fill="#00B4F1"/>
<path d="M991.927 28.0733L991.924 28.0158C991.892 27.3051 991.871 26.5533 991.858 25.7168C991.797 21.6376 988.555 18.2634 984.475 18.0353C975.969 17.5606 969.388 14.787 963.766 9.30682L963.718 9.2611C961.884 7.57963 959.118 7.57963 957.284 9.2611L957.236 9.30682C951.613 14.787 945.033 17.5606 936.527 18.0359C932.448 18.2634 929.204 21.6376 929.144 25.7174C929.131 26.5482 929.109 27.3 929.077 28.0158L929.074 28.1495C928.909 36.8233 928.703 47.6182 932.314 57.4163C934.3 62.8045 937.307 67.4882 941.252 71.3382C945.745 75.7228 951.63 79.2037 958.743 81.6839C958.975 81.7646 959.215 81.83 959.46 81.8792C959.805 81.948 960.153 81.9824 960.501 81.9824C960.849 81.9824 961.197 81.948 961.542 81.8792C961.787 81.83 962.029 81.764 962.261 81.6827C969.366 79.1981 975.245 75.7155 979.734 71.3315C983.677 67.4803 986.684 62.7954 988.671 57.4062C992.296 47.5787 992.091 36.7634 991.927 28.0733ZM984.598 55.9042C980.79 66.2312 973.014 73.3234 960.829 77.5849C960.785 77.5996 960.739 77.6126 960.691 77.6221C960.565 77.647 960.437 77.647 960.309 77.6216C960.262 77.612 960.216 77.5996 960.173 77.5849C947.974 73.3313 940.194 66.243 936.388 55.9155C933.059 46.8839 933.248 36.9746 933.414 28.2325L933.416 28.184C933.449 27.4327 933.472 26.6459 933.484 25.7811C933.512 23.9698 934.954 22.4713 936.769 22.3702C941.582 22.1016 945.811 21.1714 949.697 19.5266C953.577 17.8841 957.024 15.5687 960.232 12.4485C960.395 12.3108 960.607 12.3102 960.769 12.4485C963.978 15.5687 967.425 17.8841 971.305 19.5266C975.19 21.1714 979.419 22.1016 984.233 22.3702C986.048 22.4713 987.491 23.9698 987.517 25.7817C987.53 26.6509 987.553 27.4378 987.587 28.184C987.753 36.9362 987.937 46.8534 984.598 55.9042Z" fill="#00B4F1"/>
<path d="M960.5 26.5551C950.333 26.5551 942.062 34.8264 942.062 44.9925C942.062 55.1593 950.333 63.4306 960.5 63.4306C970.666 63.4306 978.937 55.1593 978.937 44.9925C978.937 34.8264 970.666 26.5551 960.5 26.5551ZM960.5 59.0889C952.727 59.0889 946.403 52.7655 946.403 44.9925C946.403 37.2196 952.727 30.8962 960.5 30.8962C968.272 30.8962 974.596 37.2196 974.596 44.9925C974.596 52.7655 968.272 59.0889 960.5 59.0889Z" fill="#00B4F1"/>
<path d="M965.799 39.2686L957.235 47.8323L954.911 45.5079C954.063 44.6601 952.689 44.6601 951.841 45.5079C950.994 46.3557 950.994 47.7301 951.841 48.5774L955.7 52.437C956.124 52.8609 956.68 53.0726 957.235 53.0726C957.791 53.0726 958.346 52.8609 958.77 52.437L968.869 42.338C969.716 41.4902 969.716 40.1158 968.869 39.2686C968.021 38.4202 966.647 38.4202 965.799 39.2686Z" fill="#00B4F1"/>
<path d="M786.828 46.8272C786.029 38.7896 782.438 31.2122 776.717 25.4905C771.827 20.6012 765.843 17.4592 759.546 16.0621V11.6454C762.118 11.0056 764.029 8.67746 764.029 5.91025C764.029 2.65127 761.378 0 758.119 0H745.603C742.344 0 739.693 2.65127 739.693 5.91025C739.693 8.67728 741.605 11.0054 744.177 11.6454V16.0745C737.899 17.4775 731.934 20.6151 727.058 25.4907C725.991 26.5577 725.008 27.677 724.107 28.8403C724.063 28.837 724.02 28.8337 723.975 28.8337H711.588C710.628 28.8337 709.85 29.6119 709.85 30.572C709.85 31.532 710.628 32.3103 711.588 32.3103H721.742C720.467 34.444 719.439 36.6849 718.657 38.9916H699.738C698.778 38.9916 698 39.7699 698 40.7299C698 41.69 698.778 42.4682 699.738 42.4682H717.675C717.174 44.6674 716.886 46.9054 716.812 49.1498H709.125C708.165 49.1498 707.387 49.928 707.387 50.8881C707.387 51.8481 708.165 52.6264 709.125 52.6264H716.868C717.014 54.8765 717.376 57.1147 717.953 59.3079H706.692C705.732 59.3079 704.953 60.0862 704.953 61.0462C704.953 62.0063 705.732 62.7845 706.692 62.7845H719.062C720.768 67.2956 723.433 71.5237 727.058 75.1495C732.785 80.8765 740.371 84.4682 748.417 85.2631C749.565 85.3764 750.714 85.4326 751.862 85.4326C758.645 85.4326 765.342 83.4695 771.025 79.769C771.829 79.2451 772.057 78.1682 771.533 77.3637C771.009 76.5592 769.932 76.3317 769.127 76.8556C756.689 84.9556 740.03 83.2043 729.517 72.6912C717.181 60.3558 717.181 40.2848 729.517 27.9492C741.852 15.614 761.923 15.614 774.258 27.9492C784.758 38.4486 786.519 55.093 778.445 67.5258C777.923 68.331 778.151 69.4077 778.956 69.9304C779.762 70.4533 780.838 70.2243 781.361 69.4191C785.674 62.7762 787.616 54.753 786.828 46.8272ZM743.17 5.91042C743.17 4.56845 744.261 3.47679 745.603 3.47679H758.119C759.461 3.47679 760.553 4.56845 760.553 5.91042C760.553 7.25239 759.461 8.34405 758.119 8.34405H757.807H745.915H745.603C744.261 8.34405 743.17 7.25222 743.17 5.91042ZM747.653 15.4768V11.8207H756.069V15.4706C753.275 15.1382 750.447 15.1403 747.653 15.4768Z" fill="#00B4F1"/>
<path d="M775.489 72.1812C775.03 72.1812 774.583 72.3671 774.26 72.6905C773.935 73.0138 773.75 73.4623 773.75 73.9194C773.75 74.3766 773.935 74.8251 774.26 75.1484C774.583 75.4735 775.03 75.6577 775.489 75.6577C775.946 75.6577 776.392 75.4735 776.717 75.1484C777.041 74.8251 777.227 74.3766 777.227 73.9194C777.227 73.4623 777.041 73.0138 776.717 72.6905C776.392 72.3671 775.946 72.1812 775.489 72.1812Z" fill="#00B4F1"/>
<path d="M751.888 23.3538C737.019 23.3538 724.922 35.4506 724.922 50.3199C724.922 65.1893 737.019 77.2861 751.888 77.2861C766.757 77.2861 778.854 65.1893 778.854 50.3199C778.854 35.4506 766.757 23.3538 751.888 23.3538ZM751.888 73.8095C738.936 73.8095 728.398 63.2721 728.398 50.3199C728.398 37.3678 738.936 26.8304 751.888 26.8304C764.84 26.8304 775.377 37.3678 775.377 50.3199C775.377 63.2721 764.84 73.8095 751.888 73.8095Z" fill="#00B4F1"/>
<path d="M762.883 36.8656L754.274 45.4752C753.554 45.1192 752.744 44.9181 751.888 44.9181C751.031 44.9181 750.222 45.1192 749.502 45.4752L745.648 41.6219C744.969 40.9431 743.869 40.9431 743.19 41.6219C742.511 42.3007 742.511 43.4014 743.19 44.0802L747.043 47.9335C746.687 48.6535 746.486 49.4634 746.486 50.3195C746.486 53.2979 748.909 55.7212 751.888 55.7212C754.866 55.7212 757.289 53.2979 757.289 50.3195C757.289 49.4634 757.088 48.6535 756.732 47.9335L765.089 39.5764L765.342 39.3239C766.021 38.6451 766.021 37.5444 765.342 36.8656C764.663 36.1867 763.563 36.1867 762.883 36.8656ZM751.888 52.2447C750.826 52.2447 749.963 51.3811 749.963 50.3197C749.963 49.2583 750.826 48.3947 751.888 48.3947C752.949 48.3947 753.813 49.2583 753.813 50.3197C753.813 51.3811 752.949 52.2447 751.888 52.2447Z" fill="#00B4F1"/>
<path d="M770.474 48.6028H768.863C767.903 48.6028 767.125 49.381 767.125 50.3411C767.125 51.3011 767.903 52.0793 768.863 52.0793H770.474C771.433 52.0793 772.212 51.3011 772.212 50.3411C772.212 49.381 771.433 48.6028 770.474 48.6028Z" fill="#00B4F1"/>
<path d="M734.912 48.5604H733.302C732.342 48.5604 731.563 49.3387 731.563 50.2987C731.563 51.2588 732.342 52.037 733.302 52.037H734.912C735.872 52.037 736.65 51.2588 736.65 50.2987C736.65 49.3387 735.872 48.5604 734.912 48.5604Z" fill="#00B4F1"/>
<path d="M751.909 35.0825C752.869 35.0825 753.647 34.3043 753.647 33.3442V31.7339C753.647 30.7738 752.869 29.9956 751.909 29.9956C750.949 29.9956 750.171 30.7738 750.171 31.7339V33.3442C750.171 34.3043 750.949 35.0825 751.909 35.0825Z" fill="#00B4F1"/>
<path d="M751.866 65.5569C750.907 65.5569 750.128 66.3351 750.128 67.2952V68.9055C750.128 69.8656 750.907 70.6438 751.866 70.6438C752.826 70.6438 753.605 69.8656 753.605 68.9055V67.2952C753.605 66.3351 752.826 65.5569 751.866 65.5569Z" fill="#00B4F1"/>
<path d="M699.738 59.3071C699.281 59.3071 698.833 59.4931 698.509 59.8164C698.186 60.1398 698 60.5882 698 61.0454C698 61.5043 698.186 61.9511 698.509 62.2744C698.833 62.5977 699.281 62.7837 699.738 62.7837C700.195 62.7837 700.644 62.5977 700.967 62.2744C701.29 61.9511 701.477 61.5026 701.477 61.0454C701.477 60.5882 701.291 60.1398 700.967 59.8164C700.644 59.4931 700.195 59.3071 699.738 59.3071Z" fill="#00B4F1"/>
</svg>
